<?xml version="1.0"?>
<svg xmlns="http://www.w3.org/2000/svg" id="Layer_1" enable-background="new 0 0 512 512" height="512px" viewBox="0 0 512 512" width="512px"><g><g><path d="m446 40h-46v-24c0-8.836-7.163-16-16-16s-16 7.164-16 16v24h-224v-24c0-8.836-7.163-16-16-16s-16 7.164-16 16v24h-46c-36.393 0-66 29.607-66 66v340c0 36.393 29.607 66 66 66h380c36.393 0 66-29.607 66-66v-340c0-36.393-29.607-66-66-66zm34 406c0 18.778-15.222 34-34 34h-380c-18.778 0-34-15.222-34-34v-265c0-2.761 2.239-5 5-5h438c2.761 0 5 2.239 5 5z" data-original="#000000" class="active-path" data-old_color="#000000" fill="#3CB371"/></g></g> </svg>
